<svg xmlns="http://www.w3.org/2000/svg"
     width="128px" height="128px"
     viewBox="0 0 128 128">
  <path
        d="M 52.00,0.46
           C 73.11,-2.45 94.57,2.64 109.96,18.04
             119.63,27.70 127.83,44.15 128.00,58.00
             128.00,58.00 128.00,70.00 128.00,70.00
             127.74,92.00 112.05,112.23 93.00,121.75
             80.17,128.17 72.89,128.16 59.00,128.00
             33.73,127.70 10.52,108.62 2.75,85.00
             -0.64,74.70 -0.05,69.50 0.00,59.00
             0.04,50.09 2.29,42.92 6.25,35.00
             15.93,15.64 31.09,4.98 52.00,0.46 Z
           M 57.00,11.29
           C 40.05,14.10 25.01,23.38 16.98,39.00
             -0.56,73.11 22.50,116.54 62.00,117.00
             82.64,117.24 101.06,107.56 111.10,89.00
             126.18,61.13 112.19,24.20 82.00,14.00
             73.21,11.04 66.21,10.42 57.00,11.29 Z
           M 36.00,37.43
           C 49.10,35.81 74.31,36.73 87.00,40.29
             90.50,41.28 97.05,42.95 99.57,45.50
             102.53,48.47 102.04,52.85 97.94,54.39
             94.27,55.77 85.27,51.90 81.00,50.88
             67.58,47.68 61.39,47.98 48.00,48.00
             42.68,48.01 29.82,51.47 28.33,44.94
             27.01,39.15 31.67,38.20 36.00,37.43 Z
           M 38.00,57.44
           C 50.68,55.81 73.74,56.81 86.00,60.44
             88.81,61.27 94.44,63.14 96.26,65.41
             98.65,68.40 97.60,72.91 93.89,74.17
             90.52,75.31 81.79,71.45 78.00,70.48
             67.78,67.86 58.41,67.88 48.00,68.00
             43.06,68.06 32.04,71.38 30.47,64.90
             29.15,59.39 33.91,58.25 38.00,57.44 Z
           M 41.00,76.42
           C 52.29,75.05 67.95,76.12 79.00,78.89
             83.02,79.91 89.84,81.52 91.16,86.04
             92.34,90.13 88.89,92.96 85.00,92.74
             85.00,92.74 75.00,89.90 75.00,89.90
             75.00,89.90 59.00,87.28 59.00,87.28
             49.24,86.13 44.51,88.33 38.00,87.96
             31.29,87.57 29.75,82.77 32.60,79.31
             34.52,76.99 38.21,76.86 41.00,76.42 Z" />
</svg>
