<svg viewBox="0 0 432 432" fill="none" xmlns="http://www.w3.org/2000/svg">
    <path d="M82.8735 0.48877H345.6L350.89 0.898311H354.416C381.632 3.55372 406.79 19.931 420.349 43.5963C426.097 53.6279 431.423 68.957 431.559 80.5871L432 88.9541V343.486L431.559 351.413C431.524 358.168 429.029 368.812 426.688 375.193C417.576 400.012 398.053 419.084 372.931 427.451C367.703 429.19 357.617 431.494 352.212 431.56L343.837 432H88.1633L79.7878 431.56C74.0395 431.489 64.584 429.287 59.0694 427.451C33.9473 419.084 14.4235 400.016 5.31184 375.193C3.09894 369.16 0.471673 358.203 0.440816 351.853L0 343.486V88.9541L0.440816 80.1468C0.506939 74.7478 2.81241 64.6679 4.55363 59.4495C11.8756 37.5148 27.9918 18.9974 48.9306 9.01868C56.7595 5.29317 65.038 2.77868 73.6163 1.51042L82.8735 0.48877ZM101.388 43.6271C92.2937 45.0539 87.3345 46.168 78.9061 50.1534C59.0429 59.5376 43.2353 82.5952 43.2 104.807V327.633C43.2088 332.226 44.2624 337.748 45.5319 342.165C51.6196 363.351 68.1899 380.318 89.4857 386.387C94.1892 387.73 99.576 388.835 104.473 388.844H327.527C332.614 388.835 337.643 387.774 342.514 386.387C369.338 378.742 386.953 355.504 388.84 328.073L389.241 322.789V111.413L388.782 106.128V101.725C388.015 94.3222 385.776 86.3867 382.514 79.7064C374.703 63.699 361.081 52.2715 344.278 46.6789C339.252 45.0055 332.83 43.6051 327.527 43.6271H101.388Z"/>
    <path d="M267.625 169.806V262.078C267.625 317.442 230.559 349 184.087 349C142.25 346.969 134.875 339.786 120.125 324.823C109.21 313.751 98 295.296 98 265.769C98 219.976 112.75 180.879 197.562 180.879V228.86C171.012 220.002 154.542 237.472 149.625 247.315C144.094 258.387 143.054 274.002 152.837 287.37C159.891 297.011 171.215 303.376 184.087 303.376C204.816 303.376 221.772 286.875 222.514 266.358L222.576 83H268.489C271.769 100.427 271.886 110.752 284.086 124.714C292.997 134.912 319.25 143.97 334 143.97V191.951C310.238 191.951 285.571 182.661 267.625 169.806Z"/>
</svg>