<svg xmlns="http://www.w3.org/2000/svg"
     width="128" height="128"
     viewBox="0 0 128 128">
  <path id="Selection"
        d="M 15.00,0.65
           C 21.00,-0.59 38.80,0.00 46.00,0.00
             46.00,0.00 105.00,0.00 105.00,0.00
             107.53,0.00 110.59,-0.11 113.00,0.65
             123.90,4.06 127.98,17.85 128.00,28.00
             128.00,28.00 128.00,100.00 128.00,100.00
             127.98,110.05 123.78,123.97 113.00,127.35
             110.59,128.11 107.53,128.00 105.00,128.00
             105.00,128.00 23.00,128.00 23.00,128.00
             20.47,128.00 17.41,128.11 15.00,127.35
             4.10,123.94 0.02,110.15 0.00,100.00
             0.00,100.00 0.00,26.00 0.00,26.00
             0.14,15.64 5.07,4.82 15.00,0.65 Z
           M 22.00,14.11
           C 8.76,17.64 10.00,30.06 10.00,41.00
             10.00,41.00 10.00,58.00 10.00,58.00
             10.00,58.00 10.00,94.00 10.00,94.00
             10.07,99.73 10.85,106.48 15.33,110.58
             19.22,114.15 24.09,113.99 29.00,114.00
             29.00,114.00 101.00,114.00 101.00,114.00
             115.90,113.82 117.98,104.86 118.00,92.00
             118.00,92.00 118.00,47.00 118.00,47.00
             118.00,40.30 118.64,28.99 116.34,23.00
             113.28,15.03 107.60,14.04 100.00,14.11
             100.00,14.11 50.00,14.11 50.00,14.11
             50.00,14.11 22.00,14.11 22.00,14.11 Z
           M 46.04,26.78
           C 53.28,25.71 62.85,34.37 69.00,38.19
             69.00,38.19 93.00,54.00 93.00,54.00
             96.18,56.14 100.79,58.89 101.46,63.00
             102.47,69.13 93.30,73.80 89.00,76.67
             89.00,76.67 63.00,93.67 63.00,93.67
             59.73,95.84 52.64,101.09 49.00,101.50
             41.29,102.38 41.01,94.34 41.00,89.00
             41.00,89.00 41.00,39.00 41.00,39.00
             41.01,33.18 40.43,29.94 46.04,26.78 Z
           M 56.00,46.00
           C 56.00,46.00 55.00,59.00 55.00,59.00
             55.00,59.00 55.00,82.00 55.00,82.00
             55.00,82.00 82.00,65.00 82.00,65.00
             82.00,65.00 82.00,63.00 82.00,63.00
             82.00,63.00 56.00,46.00 56.00,46.00 Z" />
</svg>
