<svg xmlns="http://www.w3.org/2000/svg"
     width="3.26667in" height="3.27in"
     viewBox="0 0 980 981">
  <path
        fill="#FCF7F8"
        d="M 188.00,1.11
           C 188.00,1.11 256.00,1.11 256.00,1.11
             256.00,1.11 387.00,1.11 387.00,1.11
             387.00,1.11 784.00,1.11 784.00,1.11
             784.00,1.11 796.00,2.04 796.00,2.04
             796.00,2.04 804.00,2.04 804.00,2.04
             865.74,8.07 922.81,45.26 953.57,99.00
             966.61,121.78 978.69,156.59 979.00,183.00
             979.00,183.00 980.00,202.00 980.00,202.00
             980.00,202.00 980.00,780.00 980.00,780.00
             980.00,780.00 979.00,798.00 979.00,798.00
             978.92,813.34 973.26,837.51 967.95,852.00
             947.28,908.36 902.99,951.67 846.00,970.67
             834.14,974.62 811.26,979.85 799.00,980.00
             799.00,980.00 780.00,981.00 780.00,981.00
             780.00,981.00 200.00,981.00 200.00,981.00
             200.00,981.00 181.00,980.00 181.00,980.00
             167.96,979.84 146.51,974.84 134.00,970.67
             77.01,951.67 32.72,908.37 12.05,852.00
             7.03,838.30 1.07,813.42 1.00,799.00
             1.00,799.00 0.00,780.00 0.00,780.00
             0.00,780.00 0.00,202.00 0.00,202.00
             0.00,202.00 1.00,182.00 1.00,182.00
             1.15,169.74 6.38,146.85 10.33,135.00
             26.94,85.19 63.50,43.14 111.00,20.48
             128.76,12.02 147.54,6.31 167.00,3.43
             167.00,3.43 188.00,1.11 188.00,1.11 Z
           M 230.00,99.07
           C 209.37,102.31 198.12,104.84 179.00,113.89
             133.94,135.20 98.08,187.56 98.00,238.00
             98.00,238.00 98.00,300.00 98.00,300.00
             98.00,300.00 98.00,418.00 98.00,418.00
             98.00,418.00 98.00,744.00 98.00,744.00
             98.02,754.43 100.41,766.97 103.29,777.00
             117.10,825.11 154.69,863.64 203.00,877.42
             213.67,880.47 225.89,882.98 237.00,883.00
             237.00,883.00 743.00,883.00 743.00,883.00
             754.54,882.98 765.95,880.57 777.00,877.42
             837.85,860.06 877.81,807.29 882.09,745.00
             882.09,745.00 883.00,733.00 883.00,733.00
             883.00,733.00 883.00,253.00 883.00,253.00
             883.00,253.00 881.96,241.00 881.96,241.00
             881.96,241.00 881.96,231.00 881.96,231.00
             880.22,214.19 875.14,196.17 867.74,181.00
             850.02,144.65 819.12,118.70 781.00,106.00
             769.60,102.20 755.03,99.02 743.00,99.07
             743.00,99.07 403.00,99.07 403.00,99.07
             403.00,99.07 289.00,99.07 289.00,99.07
             289.00,99.07 230.00,99.07 230.00,99.07 Z
           M 441.00,442.00
           C 441.00,442.00 441.00,323.00 441.00,323.00
             441.00,323.00 440.00,308.00 440.00,308.00
             439.97,286.36 439.58,263.82 452.10,245.00
             457.49,236.90 469.83,226.90 478.00,221.34
             499.63,206.65 523.30,200.62 549.00,198.04
             549.00,198.04 558.00,198.04 558.00,198.04
             558.00,198.04 576.00,197.00 576.00,197.00
             576.00,197.00 592.00,198.04 592.00,198.04
             592.00,198.04 606.00,198.04 606.00,198.04
             606.00,198.04 619.00,199.00 619.00,199.00
             619.00,199.00 637.00,200.00 637.00,200.00
             637.00,200.00 632.00,226.00 632.00,226.00
             632.00,226.00 622.60,273.00 622.60,273.00
             622.60,273.00 619.60,288.00 619.60,288.00
             619.22,289.84 618.82,292.78 617.27,294.01
             615.69,295.26 611.97,295.00 610.00,295.00
             610.00,295.00 588.00,295.00 588.00,295.00
             588.00,295.00 578.00,295.00 578.00,295.00
             565.70,295.15 553.93,301.74 547.10,312.00
             544.86,315.37 542.63,320.15 541.36,324.00
             539.42,329.87 539.01,333.89 539.00,340.00
             539.00,340.00 539.00,443.00 539.00,443.00
             539.00,443.00 636.00,443.00 636.00,443.00
             636.00,443.00 617.63,518.00 617.63,518.00
             617.63,518.00 613.87,533.00 613.87,533.00
             613.87,533.00 611.28,539.01 611.28,539.01
             611.28,539.01 604.00,540.00 604.00,540.00
             604.00,540.00 539.00,540.00 539.00,540.00
             539.00,540.00 539.00,785.00 539.00,785.00
             539.00,785.00 441.00,785.00 441.00,785.00
             441.00,785.00 441.00,540.00 441.00,540.00
             441.00,540.00 343.00,540.00 343.00,540.00
             343.00,540.00 343.00,442.00 343.00,442.00
             343.00,442.00 441.00,442.00 441.00,442.00 Z" />
</svg>
