<svg width="256" height="256" viewBox="0 0 256 256" fill="none" xmlns="http://www.w3.org/2000/svg">
<circle cx="128" cy="128" r="128" fill="#242424"/>
<path d="M74.6045 135.958C76.8947 156.558 75.9447 178.04 68.0899 184.237C67.1799 184.955 62.6301 180.109 61.5901 180.213C61.0268 180.084 60.0302 180.262 60.0302 182.03C60.0302 186.573 54.3103 200.591 44.3006 212.143C43.824 212.576 43.4167 213.649 45.6006 214.48C48.3305 215.518 56.2603 216.946 60.8101 215.129C65.36 213.312 72.3798 206.562 76.0197 204.356C106.829 185.679 139.328 185.795 175.987 196.698C192.063 201.479 249.954 176.553 238.515 149.451C238.341 148.976 237.839 148.439 237.215 150.1C236.435 152.177 217.195 171.517 181.706 171.517C161.323 170.79 141.798 146.596 99.549 178.007C98.8556 178.569 97.079 179.045 97.339 176.839C97.5313 174.534 101.016 139.003 95.3894 107.166M90.6994 86.4465C89.3465 82.8361 87.3054 78.3262 85.5094 75.3375C84.8854 74.4029 84.0361 74.3424 83.6894 74.4289C78.5763 74.5154 68.4019 74.8183 68.6099 75.3375L54.7003 99.9989C54.657 100.388 54.7523 101.011 55.4803 100.388C55.5056 100.367 55.5309 100.345 55.5564 100.323C55.5893 100.294 55.6224 100.266 55.6558 100.237C56.5278 99.4816 57.5791 98.5711 59.7702 98.5711C61.6421 98.5711 63.1501 98.9172 63.67 99.0903C65.4637 99.272 67.3115 102.317 69.001 107.166M101.108 30.128L83.6296 56.3926C82.8758 57.3372 89.0035 54.9029 91.7165 55.2165C95.1077 55.6085 102.673 56.7846 97.1947 73.7716C92.8121 87.3612 78.6732 101.386 72.1515 106.7C68.6733 109.227 59.343 111.143 49.8475 98.5988C49.5342 98.1848 39.8104 118.124 36.6738 123.426C34.486 127.124 28.6652 136.65 18.0219 148.776C17.0656 149.625 16.3052 151.834 18.0219 152.696C21.1442 154.264 24.5697 156.59 36.6738 157.008C48.778 157.426 65.369 144.812 72.1515 138.453C79.934 131.048 98.499 107.484 109.586 77.2997C109.899 76.4456 112.878 107.876 113.368 107.876H114.803C115.159 107.876 133.69 77.2997 134.629 77.2997C135.803 77.2997 130.716 105.786 138.281 132.181C140.394 138.436 145.409 144.439 149.574 149.168C152.789 153.435 171.092 166.806 171.933 166.547C173.193 166.368 175.636 165.908 175.324 165.502C173.819 163.712 170.263 157.269 171.411 148.384C172.559 139.498 179.454 130.656 182.759 127.346C184.125 125.799 184.961 123.687 182.628 123.687H170.628C162.15 123.252 145.298 115.194 145.716 86.4465C145.716 75.1567 149.889 66.0621 151.976 62.926C158.088 52.6293 162.463 50.3818 179.367 49.8591C179.572 49.8526 181.887 36.0925 183.019 29.2133C183.061 28.9797 150.542 28.8823 150.542 29.2133L123.673 66.8461C123.422 67.1976 120.525 42.5138 119.107 30.128C119.107 29.6438 101.264 29.7823 101.108 30.128Z" stroke="white" stroke-width="8"/>
<path d="M74.6045 135.958C76.8947 156.558 75.9447 178.04 68.0899 184.237C67.1799 184.955 62.6301 180.109 61.5901 180.213C61.0268 180.084 60.0302 180.262 60.0302 182.03C60.0302 186.573 54.3103 200.591 44.3006 212.143C43.824 212.576 43.4167 213.649 45.6006 214.48C48.3305 215.518 56.2603 216.946 60.8101 215.129C65.36 213.312 72.3798 206.562 76.0197 204.356C106.829 185.679 139.328 185.795 175.987 196.698C192.063 201.479 249.954 176.553 238.515 149.451C238.341 148.976 237.839 148.439 237.215 150.1C236.435 152.177 217.195 171.517 181.706 171.517C161.323 170.79 141.798 146.596 99.549 178.007C98.8556 178.569 97.079 179.045 97.339 176.839C97.5313 174.534 101.016 139.003 95.3894 107.166M90.6994 86.4465C89.3465 82.8361 87.3054 78.3262 85.5094 75.3375C84.8854 74.4029 84.0361 74.3424 83.6894 74.4289C78.5763 74.5154 68.4019 74.8183 68.6099 75.3375L54.7003 99.9989C54.657 100.388 54.7523 101.011 55.4803 100.388C55.5056 100.367 55.5309 100.345 55.5564 100.323C55.5893 100.294 55.6224 100.266 55.6558 100.237C56.5278 99.4816 57.5791 98.5711 59.7702 98.5711C61.6421 98.5711 63.1501 98.9172 63.67 99.0903C65.4637 99.272 67.3115 102.317 69.001 107.166M101.108 30.128L83.6296 56.3926C82.8758 57.3372 89.0035 54.9029 91.7165 55.2165C95.1077 55.6085 102.673 56.7846 97.1947 73.7716C92.8121 87.3612 78.6732 101.386 72.1515 106.7C68.6733 109.227 59.343 111.143 49.8475 98.5988C49.5342 98.1848 39.8104 118.124 36.6738 123.426C34.486 127.124 28.6652 136.65 18.0219 148.776C17.0656 149.625 16.3052 151.834 18.0219 152.696C21.1442 154.264 24.5697 156.59 36.6738 157.008C48.778 157.426 65.369 144.812 72.1515 138.453C79.934 131.048 98.499 107.484 109.586 77.2997C109.899 76.4456 112.878 107.876 113.368 107.876H114.803C115.159 107.876 133.69 77.2997 134.629 77.2997C135.803 77.2997 130.716 105.786 138.281 132.181C140.394 138.436 145.409 144.439 149.574 149.168C152.789 153.435 171.092 166.806 171.933 166.547C173.193 166.368 175.636 165.908 175.324 165.502C173.819 163.712 170.263 157.269 171.411 148.384C172.559 139.498 179.454 130.656 182.759 127.346C184.125 125.799 184.961 123.687 182.628 123.687H170.628C162.15 123.252 145.298 115.194 145.716 86.4465C145.716 75.1567 149.889 66.0621 151.976 62.926C158.088 52.6293 162.463 50.3818 179.367 49.8591C179.572 49.8526 181.887 36.0925 183.019 29.2133C183.061 28.9797 150.542 28.8823 150.542 29.2133L123.673 66.8461C123.422 67.1976 120.525 42.5138 119.107 30.128C119.107 29.6438 101.264 29.7823 101.108 30.128Z" stroke="#FF9F00" stroke-width="8"/>
</svg>
